v -0.500000 -0.500000 0.500000
v -0.166667 -0.500000 0.500000
v 0.166667 -0.500000 0.500000
v 0.500000 -0.500000 0.500000
v -0.500000 -0.166667 0.500000
v -0.166667 -0.166667 0.739758
v 0.166667 -0.166667 0.739758
v 0.500000 -0.166667 0.500000
v -0.500000 0.166667 0.500000
v -0.166667 0.166667 0.739758
v 0.166667 0.166667 0.739758
v 0.500000 0.166667 0.500000
v -0.500000 0.500000 0.500000
v -0.166667 0.500000 0.500000
v 0.166667 0.500000 0.500000
v 0.500000 0.241225 0.500000
v -0.500000 0.500000 0.166667
v -0.166667 0.765657 0.166667
v 0.166667 0.765657 0.166667
v 0.614564 0.349633 0.166667
v -0.500000 0.500000 -0.166667
v -0.166667 0.765657 -0.166667
v 0.166667 0.765657 -0.166667
v 0.614564 0.349633 -0.166667
v -0.500000 0.500000 -0.500000
v -0.166667 0.500000 -0.500000
v 0.166667 0.500000 -0.500000
v 0.500000 0.241225 -0.500000
v -0.500000 0.166667 -0.500000
v -0.166667 0.166667 -0.739758
v 0.166667 0.166667 -0.739758
v 0.500000 0.166667 -0.500000
v -0.500000 -0.166667 -0.500000
v -0.166667 -0.166667 -0.739758
v 0.166667 -0.166667 -0.739758
v 0.500000 -0.166667 -0.500000
v -0.500000 -0.500000 -0.500000
v -0.166667 -0.500000 -0.500000
v 0.166667 -0.500000 -0.500000
v 0.500000 -0.500000 -0.500000
v -0.500000 -0.500000 -0.166667
v -0.166667 -0.703239 -0.166667
v 0.166667 -0.703239 -0.166667
v 0.500000 -0.500000 -0.166667
v -0.500000 -0.500000 0.166667
v -0.166667 -0.703239 0.166667
v 0.166667 -0.703239 0.166667
v 0.500000 -0.500000 0.166667
v 1.104889 -0.166667 -0.166667
v 1.104889 -0.166667 0.166667
v 1.104889 0.166667 -0.166667
v 1.104889 0.166667 0.166667
v -0.798444 -0.166667 -0.166667
v -0.798444 -0.166667 0.166667
v -0.798444 0.166667 -0.166667
v -0.798444 0.166667 0.166667
v -0.166667 0.166667 0.937682
v -0.166667 -0.166667 0.937682
v 0.166667 -0.166667 0.937682
v 0.166667 0.166667 0.937682
v -0.166667 -0.166667 -0.937682
v -0.166667 0.166667 -0.937682
v 0.166667 0.166667 -0.937682
v 0.166667 -0.166667 -0.937682
v -0.612925 0.453795 1.049269
v -0.612925 -0.083475 1.049269
v 0.045445 -0.083475 1.194292
v 0.045445 0.453795 1.194292
v -0.612925 -0.083475 -1.039033
v -0.612925 0.453795 -1.039033
v 0.045445 0.453795 -1.194292
v 0.045445 -0.083475 -1.194292
v -0.691833 0.453795 1.407492
v -0.691833 -0.083475 1.407492
v -0.033463 -0.083475 1.552515
v -0.033463 0.453795 1.552515
v -0.697118 -0.083475 -1.396051
v -0.697118 0.453795 -1.396051
v -0.038748 0.453795 -1.551310
v -0.038748 -0.083475 -1.551310
v -0.363105 0.166667 2.093010
v -0.363105 -0.083475 2.093010
v 0.226749 -0.083475 2.238033
v 0.226749 0.166667 2.238033
v -0.378504 -0.083475 -2.079263
v -0.378504 0.166667 -2.079263
v 0.211350 0.166667 -2.234522
v 0.211350 -0.083475 -2.234522
v -1.261970 0.166667 2.286566
v -1.261970 -0.083475 2.286566
v -0.227102 -0.083475 2.431589
v -0.227102 0.166667 2.431589
v -1.281498 -0.083475 -2.277568
v -1.281498 0.166667 -2.277568
v -0.246630 0.166667 -2.432827
v -0.246630 -0.083475 -2.432827
v -1.213912 0.166667 -0.166667
v -1.213912 -0.166667 -0.166667
v -1.213912 -0.166667 0.166667
v -1.213912 0.166667 0.166667
v -1.447984 0.373547 -0.811236
v -1.447984 -0.355736 -0.805844
v -1.447984 -0.355736 0.838180
v -1.447984 0.373547 0.832788
v -2.237659 0.576661 -0.811236
v -2.237659 -0.355736 -0.805844
v -2.237659 -0.355736 0.838180
v -2.237659 0.576661 0.832788
v -2.519312 0.166667 -0.135010
v -2.519312 -0.166667 -0.135010
v -2.519312 -0.166667 0.165583
v -2.519312 0.166667 0.165583
v -2.871355 0.166667 -0.811236
v -3.081068 -0.750776 -0.811236
v -3.081068 -0.750776 0.832788
v -2.871355 0.166667 0.832788
v -3.686313 0.949809 -0.747611
v -3.318171 -0.166667 -0.811236
v -3.318171 -0.166667 0.832788
v -3.686313 0.949809 0.896413
v -2.871355 0.166667 -1.247918
v -2.871355 -0.166667 -1.247918
v -3.318171 -0.166667 -1.247918
v -3.318171 0.166667 -1.247918
v -2.871355 -0.166667 1.269470
v -2.871355 0.166667 1.269470
v -3.318171 0.166667 1.269470
v -3.318171 -0.166667 1.269470
v -1.886927 0.166667 -2.341408
v -2.871355 -0.166667 -2.341408
v -4.501791 0.813761 -2.341408
v -4.501791 1.718420 -2.341408
v -2.871355 -0.166667 2.362960
v -1.886927 0.166667 2.362960
v -4.501791 1.718420 2.362960
v -4.501791 0.813761 2.362960
v -2.871355 0.166667 -4.348615
v -2.871355 -0.166667 -4.348615
v -3.327413 0.014585 -4.348615
v -3.318171 0.166667 -4.348615
v -2.871355 -0.166667 4.370168
v -2.871355 0.166667 4.370168
v -3.318171 0.166667 4.370168
v -3.327413 0.014585 4.370168
v -3.901243 0.613697 -0.527334
v -3.851237 0.041350 -0.529272
v -3.851237 0.041350 0.606225
v -3.901243 0.613697 0.608163
v -3.519901 0.541082 -0.313105
v -3.469895 0.214243 -0.315043
v -3.469895 0.214243 0.368674
v -3.519901 0.541082 0.370611
vn -0.551526 -0.598844 0.580693
vn -0.154844 -0.717463 0.679169
vn -0.445342 -0.445342 0.776750
vn -0.667015 -0.174894 0.724226
vn 0.154844 -0.717463 0.679169
vn 0.445342 -0.445342 0.776750
vn 0.465177 -0.633551 0.618242
vn 0.532893 -0.219285 0.817276
vn -0.445342 0.445342 0.776750
vn -0.667015 0.174894 0.724226
vn -0.786647 -0.530414 0.315987
vn 0.021551 -0.750013 0.661072
vn 0.021551 0.750013 0.661072
vn -0.786647 0.530414 0.315987
vn 0.514234 0.228440 0.826667
vn 0.475846 0.475846 0.739690
vn -0.168408 0.683943 0.709832
vn -0.562600 0.578337 0.590769
vn 0.303986 0.691489 0.655313
vn 0.498050 0.641171 0.583820
vn -0.269980 0.924241 0.269980
vn -0.679692 0.711074 0.179981
vn 0.408828 0.865760 0.288653
vn 0.542281 0.805637 0.238495
vn -0.269980 0.924241 -0.269980
vn -0.679692 0.711074 -0.179981
vn 0.408828 0.865760 -0.288653
vn 0.542281 0.805637 -0.238495
vn -0.168408 0.683943 -0.709832
vn -0.562600 0.578337 -0.590769
vn 0.303986 0.691489 -0.655313
vn 0.498050 0.641171 -0.583820
vn -0.445342 0.445342 -0.776750
vn -0.667015 0.174894 -0.724226
vn 0.475846 0.475846 -0.739690
vn 0.514234 0.228440 -0.826667
vn -0.445342 -0.445342 -0.776750
vn -0.667015 -0.174894 -0.724226
vn -0.783130 0.548988 -0.292096
vn 0.018684 0.761436 -0.647971
vn 0.018684 -0.761436 -0.647971
vn -0.783130 -0.548988 -0.292096
vn 0.532893 -0.219285 -0.817276
vn 0.445342 -0.445342 -0.776750
vn -0.154844 -0.717463 -0.679169
vn -0.551526 -0.598844 -0.580693
vn 0.154844 -0.717463 -0.679169
vn 0.465177 -0.633551 -0.618242
vn -0.214548 -0.952858 -0.214548
vn -0.647897 -0.743133 -0.167282
vn 0.214548 -0.952858 -0.214548
vn 0.513137 -0.831351 -0.213417
vn -0.214548 -0.952858 0.214548
vn -0.647897 -0.743133 0.167282
vn 0.214548 -0.952858 0.214548
vn 0.513137 -0.831351 0.213417
vn 0.739413 -0.476061 -0.476061
vn 0.739413 -0.476061 0.476061
vn 0.709759 0.461821 -0.531943
vn 0.709759 0.461821 0.531943
vn -0.614336 -0.557939 -0.557939
vn -0.614336 -0.557939 0.557939
vn -0.614336 0.557939 -0.557939
vn -0.766434 0.574973 0.286330
vn -0.770888 0.573517 -0.277146
vn -0.619858 -0.728546 -0.291541
vn -0.614474 -0.730509 0.297956
vn -0.614336 0.557939 0.557939
vn -0.387417 -0.866344 -0.315208
vn -0.175258 0.440355 -0.880552
vn 0.679996 -0.656749 0.326017
vn 0.842859 0.524824 -0.118948
vn -0.160601 0.438949 0.884043
vn -0.379821 -0.869578 0.315546
vn 0.845299 0.520934 0.118731
vn 0.680829 -0.655355 -0.327082
vn -0.552942 -0.628447 -0.547091
vn -0.493986 0.686007 -0.534203
vn 0.617990 -0.728703 0.295092
vn 0.579685 0.792751 -0.188446
vn -0.485030 0.687505 0.540448
vn -0.542255 -0.630334 0.555553
vn 0.582790 0.792257 0.180792
vn 0.617037 -0.727322 -0.300447
vn -0.695527 -0.706472 0.130916
vn -0.640999 0.725497 0.250548
vn 0.511436 -0.856750 -0.066427
vn 0.397438 0.886383 0.237421
vn -0.643570 0.726169 -0.241861
vn -0.696559 -0.707182 -0.121242
vn 0.392092 0.886546 -0.245562
vn 0.511575 -0.857204 0.059097
vn -0.304573 -0.948103 -0.091304
vn -0.403327 0.898927 0.171048
vn 0.681334 -0.731589 0.023716
vn 0.695059 0.690535 0.200135
vn -0.402998 0.900331 -0.164308
vn -0.301052 -0.948873 0.094908
vn 0.686935 0.696014 -0.209009
vn 0.675572 -0.736503 -0.034129
vn 0.764698 -0.569557 -0.301400
vn 0.779895 0.551758 -0.295511
vn 0.771473 -0.563045 0.296327
vn 0.785271 0.546830 0.290390
vn 0.209673 -0.854821 -0.474677
vn 0.383307 0.780038 -0.494588
vn 0.217177 -0.851618 0.477055
vn 0.389432 0.778897 0.491592
vn -0.250049 -0.836782 -0.487106
vn -0.072804 0.900025 -0.429715
vn -0.248332 -0.835930 0.489441
vn -0.073118 0.900939 0.427742
vn 0.375363 -0.856927 -0.353240
vn -0.589666 0.716636 -0.372462
vn 0.372424 -0.857439 0.355104
vn -0.590888 0.715774 0.372183
vn -0.403746 -0.889714 -0.213066
vn 0.795877 0.585192 -0.155339
vn -0.404951 -0.889473 0.211784
vn 0.797812 0.584947 0.146058
vn -0.158899 -0.985765 -0.054938
vn -0.643746 -0.752370 -0.139755
vn 0.119527 0.849387 -0.514057
vn 0.615323 0.683829 -0.392117
vn -0.804346 -0.565762 0.181494
vn -0.818496 -0.545115 -0.181420
vn 0.615323 0.683829 0.392117
vn 0.119527 0.849388 0.514057
vn -0.643746 -0.752370 0.139755
vn -0.158899 -0.985765 0.054938
vn 0.448753 0.879481 -0.158536
vn 0.460741 0.871160 0.169700
vn 0.079626 -0.995172 -0.057374
vn 0.602369 0.634019 0.484944
vn -0.667428 -0.744591 -0.011138
vn -0.047282 0.737976 0.673169
vn 0.605559 0.628991 -0.487512
vn 0.079626 -0.995172 0.057374
vn -0.041683 0.734231 -0.677619
vn -0.662669 -0.748829 0.011202
vn -0.139099 -0.989830 -0.029810
vn 0.716073 0.695789 -0.055829
vn -0.874526 -0.482217 0.051682
vn 0.079301 0.993752 -0.078542
vn 0.716073 0.695789 0.055829
vn -0.139099 -0.989830 0.029810
vn 0.079301 0.993752 0.078542
vn -0.874526 -0.482217 -0.051682
vn -0.711162 -0.662573 -0.235042
vn -0.948839 0.080041 -0.305447
vn -0.706334 -0.667145 0.236664
vn -0.955404 0.075760 0.285420
s 1
g Mesh
usemtl initialShadingGroup
f 1//1 2//2 6//3 5//4
f 2//2 3//5 7//6 6//3
f 3//5 4//7 8//8 7//6
f 5//4 6//3 10//9 9//10
f 90//11 91//12 92//13 89//14
f 7//6 8//8 12//15 11//16
f 9//10 10//9 14//17 13//18
f 10//9 11//16 15//19 14//17
f 11//16 12//15 16//20 15//19
f 13//18 14//17 18//21 17//22
f 14//17 15//19 19//23 18//21
f 15//19 16//20 20//24 19//23
f 17//22 18//21 22//25 21//26
f 18//21 19//23 23//27 22//25
f 19//23 20//24 24//28 23//27
f 21//26 22//25 26//29 25//30
f 22//25 23//27 27//31 26//29
f 23//27 24//28 28//32 27//31
f 25//30 26//29 30//33 29//34
f 26//29 27//31 31//35 30//33
f 27//31 28//32 32//36 31//35
f 29//34 30//33 34//37 33//38
f 94//39 95//40 96//41 93//42
f 31//35 32//36 36//43 35//44
f 33//38 34//37 38//45 37//46
f 34//37 35//44 39//47 38//45
f 35//44 36//43 40//48 39//47
f 37//46 38//45 42//49 41//50
f 38//45 39//47 43//51 42//49
f 39//47 40//48 44//52 43//51
f 41//50 42//49 46//53 45//54
f 42//49 43//51 47//55 46//53
f 43//51 44//52 48//56 47//55
f 45//54 46//53 2//2 1//1
f 46//53 47//55 3//5 2//2
f 47//55 48//56 4//7 3//5
f 44//52 40//48 36//43 49//57
f 48//56 44//52 49//57 50//58
f 4//7 48//56 50//58 8//8
f 49//57 36//43 32//36 51//59
f 50//58 49//57 51//59 52//60
f 8//8 50//58 52//60 12//15
f 51//59 32//36 28//32 24//28
f 52//60 51//59 24//28 20//24
f 12//15 52//60 20//24 16//20
f 37//46 41//50 53//61 33//38
f 41//50 45//54 54//62 53//61
f 45//54 1//1 5//4 54//62
f 33//38 53//61 55//63 29//34
f 150//64 151//65 152//66 149//67
f 54//62 5//4 9//10 56//68
f 29//34 55//63 21//26 25//30
f 55//63 56//68 17//22 21//26
f 56//68 9//10 13//18 17//22
f 6//3 58//69 57//70 10//9
f 7//6 59//71 58//69 6//3
f 11//16 60//72 59//71 7//6
f 10//9 57//70 60//72 11//16
f 30//33 62//73 61//74 34//37
f 31//35 63//75 62//73 30//33
f 35//44 64//76 63//75 31//35
f 34//37 61//74 64//76 35//44
f 58//69 66//77 65//78 57//70
f 59//71 67//79 66//77 58//69
f 60//72 68//80 67//79 59//71
f 57//70 65//78 68//80 60//72
f 62//73 70//81 69//82 61//74
f 63//75 71//83 70//81 62//73
f 64//76 72//84 71//83 63//75
f 61//74 69//82 72//84 64//76
f 66//77 74//85 73//86 65//78
f 67//79 75//87 74//85 66//77
f 68//80 76//88 75//87 67//79
f 65//78 73//86 76//88 68//80
f 70//81 78//89 77//90 69//82
f 71//83 79//91 78//89 70//81
f 72//84 80//92 79//91 71//83
f 69//82 77//90 80//92 72//84
f 74//85 82//93 81//94 73//86
f 75//87 83//95 82//93 74//85
f 76//88 84//96 83//95 75//87
f 73//86 81//94 84//96 76//88
f 78//89 86//97 85//98 77//90
f 79//91 87//99 86//97 78//89
f 80//92 88//100 87//99 79//91
f 77//90 85//98 88//100 80//92
f 82//93 90//11 89//14 81//94
f 83//95 91//12 90//11 82//93
f 84//96 92//13 91//12 83//95
f 81//94 89//14 92//13 84//96
f 86//97 94//39 93//42 85//98
f 87//99 95//40 94//39 86//97
f 88//100 96//41 95//40 87//99
f 85//98 93//42 96//41 88//100
f 53//61 98//101 97//102 55//63
f 54//62 99//103 98//101 53//61
f 56//68 100//104 99//103 54//62
f 55//63 97//102 100//104 56//68
f 98//101 102//105 101//106 97//102
f 99//103 103//107 102//105 98//101
f 100//104 104//108 103//107 99//103
f 97//102 101//106 104//108 100//104
f 102//105 106//109 105//110 101//106
f 103//107 107//111 106//109 102//105
f 104//108 108//112 107//111 103//107
f 101//106 105//110 108//112 104//108
f 106//109 110//113 109//114 105//110
f 107//111 111//115 110//113 106//109
f 108//112 112//116 111//115 107//111
f 105//110 109//114 112//116 108//112
f 110//113 114//117 113//118 109//114
f 111//115 115//119 114//117 110//113
f 112//116 116//120 115//119 111//115
f 109//114 113//118 116//120 112//116
f 138//121 139//122 140//123 137//124
f 115//119 119//125 118//126 114//117
f 142//127 143//128 144//129 141//130
f 113//118 117//131 120//132 116//120
f 114//117 122//133 121//134 113//118
f 118//126 123//135 122//133 114//117
f 117//131 124//136 123//135 118//126
f 113//118 121//134 124//136 117//131
f 116//120 126//137 125//138 115//119
f 120//132 127//139 126//137 116//120
f 119//125 128//140 127//139 120//132
f 115//119 125//138 128//140 119//125
f 122//133 130//141 129//142 121//134
f 123//135 131//143 130//141 122//133
f 124//136 132//144 131//143 123//135
f 121//134 129//142 132//144 124//136
f 126//137 134//145 133//146 125//138
f 127//139 135//147 134//145 126//137
f 128//140 136//148 135//147 127//139
f 125//138 133//146 136//148 128//140
f 130//141 138//121 137//124 129//142
f 131//143 139//122 138//121 130//141
f 132//144 140//123 139//122 131//143
f 129//142 137//124 140//123 132//144
f 134//145 142//127 141//130 133//146
f 135//147 143//128 142//127 134//145
f 136//148 144//129 143//128 135//147
f 133//146 141//130 144//129 136//148
f 118//126 146//149 145//150 117//131
f 119//125 147//151 146//149 118//126
f 120//132 148//152 147//151 119//125
f 117//131 145//150 148//152 120//132
f 146//149 150//64 149//67 145//150
f 147//151 151//65 150//64 146//149
f 148//152 152//66 151//65 147//151
f 145//150 149//67 152//66 148//152
